<svg width="26" height="23" viewBox="0 0 26 23" fill="none" xmlns="http://www.w3.org/2000/svg">
<path d="M1.47648e-06 9.85714L1.33286e-06 13.1429L19.5 13.1429L19.5 16.4286L22.75 16.4286L22.75 13.1429L26 13.1429L26 9.85714L22.75 9.85714L22.75 6.57143L19.5 6.57143L19.5 9.85714L1.47648e-06 9.85714ZM16.25 3.28571L19.5 3.28571L19.5 6.57143L16.25 6.57143L16.25 3.28571ZM16.25 3.28571L13 3.28571L13 -5.68248e-07L16.25 -4.26186e-07L16.25 3.28571ZM16.25 19.7143L19.5 19.7143L19.5 16.4286L16.25 16.4286L16.25 19.7143ZM16.25 19.7143L13 19.7143L13 23L16.25 23L16.25 19.7143Z" fill="#C1DEF9"/>
</svg>
