<?xml version="1.0" encoding="utf-8"?>
<!-- Generator: Adobe Illustrator 26.0.3, SVG Export Plug-In . SVG Version: 6.00 Build 0)  -->
<svg version="1.1" id="Livello_1" xmlns="http://www.w3.org/2000/svg" xmlns:xlink="http://www.w3.org/1999/xlink" x="0px" y="0px"
	 viewBox="0 0 110 95.7" style="enable-background:new 0 0 110 95.7;" xml:space="preserve">
<style type="text/css">
	.st0{fill:#66FFCC;}
</style>
<path class="st0" d="M45.6,69.9h18.8v-6.2H45.6V69.9z M86.2,85.5v-6.2H23.8v6.2H86.2z M17.5,79.2h6.2V16.8h-6.2V79.2z M36.4,10.4
	H23.8v6.2h62.5v-6.1h-0.1H73.8L36.4,10.4z M72.6,42.5V32.4H62.4v10.1H72.6z M98.8,35.6 M92.6,16.8h-6.2v62.5h6.2V16.8z M44.7,32.4
	H34.6v10.1h10.1V32.4z M39.4,57.4v6.2h6.2v-6.2H39.4z M64.4,63.6h6.2v-6.2h-6.2V63.6z"/>
</svg>
