<svg width="52" height="46" viewBox="0 0 52 46" fill="none" xmlns="http://www.w3.org/2000/svg">
<path d="M52 19.7143L52 26.2857L13 26.2857L13 32.8571L6.5 32.8571L6.5 26.2857L1.14899e-06 26.2857L8.61739e-07 19.7143L6.5 19.7143L6.5 13.1429L13 13.1429L13 19.7143L52 19.7143ZM19.5 6.57143L13 6.57143L13 13.1429L19.5 13.1429L19.5 6.57143ZM19.5 6.57143L26 6.57143L26 -1.1365e-06L19.5 -8.52372e-07L19.5 6.57143ZM19.5 39.4286L13 39.4286L13 32.8571L19.5 32.8571L19.5 39.4286ZM19.5 39.4286L26 39.4286L26 46L19.5 46L19.5 39.4286Z" fill="#C1DEF9"/>
</svg>
